<mxfile host="app.diagrams.net" modified="2023-09-14T09:11:32.233Z" agent="Mozilla/5.0 (Windows NT 10.0; Win64; x64) AppleWebKit/537.36 (KHTML, like Gecko) Chrome/116.0.0.0 Safari/537.36" version="21.7.5" etag="FYQZAabrc3ePEkr0swGI" type="github">
  <diagram name="第 1 页" id="ssONEyxRrTbGjoYOgQ0f">
    <mxGraphModel>
      <root>
        <mxCell id="0" />
        <mxCell id="1" parent="0" />
      </root>
    </mxGraphModel>
  </diagram>
</mxfile>
